<?xml version="1.0" encoding="UTF-8" standalone="no"?>
<!DOCTYPE svg PUBLIC "-//W3C//DTD SVG 1.1//EN"
 "http://www.w3.org/Graphics/SVG/1.1/DTD/svg11.dtd">
<!-- Generated by graphviz version 2.36.0 (20140111.2315)
 -->
<!-- Title: Graphagus dump Pages: 1 -->
<svg width="78pt" height="220pt"
 viewBox="0.00 0.00 78.00 220.00" xmlns="http://www.w3.org/2000/svg" xmlns:xlink="http://www.w3.org/1999/xlink">
<g id="graph0" class="graph" transform="scale(1 1) rotate(0) translate(4 216)">
<title>Graphagus dump</title>
<polygon fill="white" stroke="none" points="-4,4 -4,-216 74,-216 74,4 -4,4"/>
<!-- 1 -->
<g id="node1" class="node"><title>1</title>
<ellipse fill="none" stroke="black" cx="34" cy="-194" rx="26.949" ry="18"/>
<text text-anchor="middle" x="34" y="-190.3" font-family="Times,serif" font-size="14.00">alice</text>
</g>
<!-- 2 -->
<g id="node2" class="node"><title>2</title>
<ellipse fill="none" stroke="black" cx="34" cy="-106" rx="27" ry="18"/>
<text text-anchor="middle" x="34" y="-102.3" font-family="Times,serif" font-size="14.00">bob</text>
</g>
<!-- 1&#45;&gt;2 -->
<g id="edge1" class="edge"><title>1&#45;&gt;2</title>
<path fill="none" stroke="black" d="M34,-175.597C34,-163.746 34,-147.817 34,-134.292"/>
<polygon fill="black" stroke="black" points="37.5001,-134.084 34,-124.084 30.5001,-134.084 37.5001,-134.084"/>
<text text-anchor="middle" x="52" y="-146.3" font-family="Times,serif" font-size="14.00">knows</text>
</g>
<!-- 4 -->
<g id="node3" class="node"><title>4</title>
<ellipse fill="none" stroke="black" cx="34" cy="-18" rx="34.1708" ry="18"/>
<text text-anchor="middle" x="34" y="-14.3" font-family="Times,serif" font-size="14.00">charlie</text>
</g>
<!-- 2&#45;&gt;4 -->
<g id="edge2" class="edge"><title>2&#45;&gt;4</title>
<path fill="none" stroke="black" d="M34,-87.5966C34,-75.7459 34,-59.8169 34,-46.2917"/>
<polygon fill="black" stroke="black" points="37.5001,-46.084 34,-36.084 30.5001,-46.084 37.5001,-46.084"/>
<text text-anchor="middle" x="52" y="-58.3" font-family="Times,serif" font-size="14.00">knows</text>
</g>
</g>
</svg>
