<?xml version="1.0" encoding="UTF-8" standalone="no"?>
<!DOCTYPE svg PUBLIC "-//W3C//DTD SVG 1.1//EN"
 "http://www.w3.org/Graphics/SVG/1.1/DTD/svg11.dtd">
<!-- Generated by graphviz version 2.36.0 (20140111.2315)
 -->
<!-- Title: Graphagus dump Pages: 1 -->
<svg width="349pt" height="220pt"
 viewBox="0.00 0.00 349.00 220.00" xmlns="http://www.w3.org/2000/svg" xmlns:xlink="http://www.w3.org/1999/xlink">
<g id="graph0" class="graph" transform="scale(1 1) rotate(0) translate(4 216)">
<title>Graphagus dump</title>
<polygon fill="white" stroke="none" points="-4,4 -4,-216 345,-216 345,4 -4,4"/>
<!-- 1 -->
<g id="node1" class="node"><title>1</title>
<ellipse fill="none" stroke="black" cx="97" cy="-194" rx="33.1991" ry="18"/>
<text text-anchor="middle" x="97" y="-190.3" font-family="Times,serif" font-size="14.00">marko</text>
</g>
<!-- 2 -->
<g id="node2" class="node"><title>2</title>
<ellipse fill="none" stroke="black" cx="30" cy="-106" rx="30.3206" ry="18"/>
<text text-anchor="middle" x="30" y="-102.3" font-family="Times,serif" font-size="14.00">vadas</text>
</g>
<!-- 1&#45;&gt;2 -->
<g id="edge1" class="edge"><title>1&#45;&gt;2</title>
<path fill="none" stroke="black" d="M73.5616,-180.949C64.1808,-175.118 53.9692,-167.343 47,-158 41.763,-150.98 38.0811,-142.253 35.5179,-134.014"/>
<polygon fill="black" stroke="black" points="38.8967,-133.101 32.9169,-124.355 32.1374,-134.921 38.8967,-133.101"/>
<text text-anchor="middle" x="65" y="-146.3" font-family="Times,serif" font-size="14.00">knows</text>
</g>
<!-- 3 -->
<g id="node3" class="node"><title>3</title>
<ellipse fill="none" stroke="black" cx="184" cy="-18" rx="27" ry="18"/>
<text text-anchor="middle" x="184" y="-14.3" font-family="Times,serif" font-size="14.00">lop</text>
</g>
<!-- 1&#45;&gt;3 -->
<g id="edge3" class="edge"><title>1&#45;&gt;3</title>
<path fill="none" stroke="black" d="M94.7396,-175.962C92.6675,-154.287 91.7775,-116.277 106,-88 116.931,-66.2683 137.917,-48.3201 155.37,-36.1813"/>
<polygon fill="black" stroke="black" points="157.714,-38.8258 164.103,-30.3738 153.838,-32.997 157.714,-38.8258"/>
<text text-anchor="middle" x="126" y="-102.3" font-family="Times,serif" font-size="14.00">created</text>
</g>
<!-- 4 -->
<g id="node4" class="node"><title>4</title>
<ellipse fill="none" stroke="black" cx="258" cy="-106" rx="27" ry="18"/>
<text text-anchor="middle" x="258" y="-102.3" font-family="Times,serif" font-size="14.00">josh</text>
</g>
<!-- 1&#45;&gt;4 -->
<g id="edge2" class="edge"><title>1&#45;&gt;4</title>
<path fill="none" stroke="black" d="M120.067,-180.678C148.592,-165.441 197.192,-139.481 228.429,-122.795"/>
<polygon fill="black" stroke="black" points="230.354,-125.736 237.525,-117.937 227.055,-119.561 230.354,-125.736"/>
<text text-anchor="middle" x="209" y="-146.3" font-family="Times,serif" font-size="14.00">knows</text>
</g>
<!-- 4&#45;&gt;3 -->
<g id="edge5" class="edge"><title>4&#45;&gt;3</title>
<path fill="none" stroke="black" d="M249.003,-88.5352C242.915,-78.1063 234.31,-64.6314 225,-54 220.277,-48.6072 214.711,-43.3083 209.227,-38.5299"/>
<polygon fill="black" stroke="black" points="211.278,-35.6821 201.362,-31.9509 206.787,-41.0515 211.278,-35.6821"/>
<text text-anchor="middle" x="257" y="-58.3" font-family="Times,serif" font-size="14.00">created</text>
</g>
<!-- 5 -->
<g id="node5" class="node"><title>5</title>
<ellipse fill="none" stroke="black" cx="310" cy="-18" rx="31.2965" ry="18"/>
<text text-anchor="middle" x="310" y="-14.3" font-family="Times,serif" font-size="14.00">ripple</text>
</g>
<!-- 4&#45;&gt;5 -->
<g id="edge4" class="edge"><title>4&#45;&gt;5</title>
<path fill="none" stroke="black" d="M272.203,-90.4451C277.593,-84.4344 283.509,-77.1967 288,-70 292.791,-62.3231 297.026,-53.4213 300.468,-45.2241"/>
<polygon fill="black" stroke="black" points="303.811,-46.29 304.259,-35.7047 297.308,-43.7005 303.811,-46.29"/>
<text text-anchor="middle" x="315" y="-58.3" font-family="Times,serif" font-size="14.00">created</text>
</g>
<!-- 6 -->
<g id="node6" class="node"><title>6</title>
<ellipse fill="none" stroke="black" cx="184" cy="-106" rx="28.3955" ry="18"/>
<text text-anchor="middle" x="184" y="-102.3" font-family="Times,serif" font-size="14.00">peter</text>
</g>
<!-- 6&#45;&gt;3 -->
<g id="edge6" class="edge"><title>6&#45;&gt;3</title>
<path fill="none" stroke="black" d="M184,-87.5966C184,-75.7459 184,-59.8169 184,-46.2917"/>
<polygon fill="black" stroke="black" points="187.5,-46.084 184,-36.084 180.5,-46.084 187.5,-46.084"/>
<text text-anchor="middle" x="204" y="-58.3" font-family="Times,serif" font-size="14.00">created</text>
</g>
</g>
</svg>
